<svg width="48" height="48" viewBox="0 0 48 48" fill="none" xmlns="http://www.w3.org/2000/svg">
<g clip-path="url(#clip0_1_94)">
<mask id="path-1-inside-1_1_94" fill="white">
<path d="M47.9982 40.4475V13.8153C48.0649 11.424 46.1805 9.4315 43.7892 9.36484C43.69 9.36203 43.5905 9.36271 43.4912 9.36674H33.9504V7.55234C34.0151 5.06405 32.0503 2.99444 29.562 2.92979C29.5225 2.92878 29.4829 2.92822 29.4435 2.92822H18.5564C16.0672 2.92733 14.0487 4.94451 14.0479 7.43369C14.0479 7.47324 14.0484 7.51279 14.0495 7.55223V9.36674H4.50874C2.11848 9.26893 0.101524 11.1271 0.00360608 13.5173C-0.000427168 13.6165 -0.00109938 13.7159 0.00170149 13.8153V40.4475C-0.0629425 42.9358 1.90181 45.0054 4.3901 45.07C4.42965 45.071 4.4692 45.0716 4.50863 45.0716H43.4912C45.9804 45.0725 47.9989 43.0553 47.9997 40.5661C47.9998 40.5266 47.9993 40.487 47.9982 40.4475ZM18.4362 5.27277C18.4762 5.27064 18.5163 5.26952 18.5564 5.26963H29.4435C30.6396 5.26784 31.6106 6.23604 31.6124 7.43213C31.6125 7.47223 31.6114 7.51234 31.6093 7.55234V9.36685H16.3908V7.55234C16.3262 6.35805 17.2419 5.33742 18.4362 5.27277ZM43.6115 42.7272C43.5715 42.7293 43.5314 42.7304 43.4913 42.7303H4.50874C3.31266 42.7321 2.34166 41.7639 2.33986 40.5678C2.33975 40.5277 2.34087 40.4876 2.343 40.4476V32.7798C2.98496 33.1987 3.7431 33.4037 4.50874 33.3652H16.3908V36.7601C16.4991 37.4657 17.0833 38.0012 17.7956 38.0478H30.2045C30.9168 38.0012 31.5009 37.4657 31.6093 36.7601V33.3652H43.4913C44.257 33.4038 45.0151 33.1989 45.6571 32.7798V40.4476C45.7216 41.6419 44.8058 42.6625 43.6115 42.7272ZM18.7321 35.7064V29.8532H29.268V35.7064H18.7321ZM43.6115 31.0207C43.5715 31.0228 43.5314 31.0239 43.4913 31.0238H31.6091V28.507C31.6091 27.8631 30.8482 27.5119 30.2043 27.5119H17.7956C17.1517 27.5119 16.3908 27.8631 16.3908 28.507V31.0238H4.50874C3.31266 31.0256 2.34166 30.0574 2.33986 28.8613C2.33975 28.8212 2.34087 28.7811 2.343 28.7411V13.8153C2.27388 12.7184 3.10708 11.7731 4.20401 11.704C4.30551 11.6976 4.40746 11.699 4.50874 11.7082H43.4913C44.5859 11.609 45.5536 12.416 45.6528 13.5106C45.662 13.6118 45.6633 13.7138 45.6569 13.8153V28.741C45.7216 29.9354 44.8058 30.956 43.6115 31.0207Z"/>
</mask>
<path d="M47.9982 40.4475V13.8153C48.0649 11.424 46.1805 9.4315 43.7892 9.36484C43.69 9.36203 43.5905 9.36271 43.4912 9.36674H33.9504V7.55234C34.0151 5.06405 32.0503 2.99444 29.562 2.92979C29.5225 2.92878 29.4829 2.92822 29.4435 2.92822H18.5564C16.0672 2.92733 14.0487 4.94451 14.0479 7.43369C14.0479 7.47324 14.0484 7.51279 14.0495 7.55223V9.36674H4.50874C2.11848 9.26893 0.101524 11.1271 0.00360608 13.5173C-0.000427168 13.6165 -0.00109938 13.7159 0.00170149 13.8153V40.4475C-0.0629425 42.9358 1.90181 45.0054 4.3901 45.07C4.42965 45.071 4.4692 45.0716 4.50863 45.0716H43.4912C45.9804 45.0725 47.9989 43.0553 47.9997 40.5661C47.9998 40.5266 47.9993 40.487 47.9982 40.4475ZM18.4362 5.27277C18.4762 5.27064 18.5163 5.26952 18.5564 5.26963H29.4435C30.6396 5.26784 31.6106 6.23604 31.6124 7.43213C31.6125 7.47223 31.6114 7.51234 31.6093 7.55234V9.36685H16.3908V7.55234C16.3262 6.35805 17.2419 5.33742 18.4362 5.27277ZM43.6115 42.7272C43.5715 42.7293 43.5314 42.7304 43.4913 42.7303H4.50874C3.31266 42.7321 2.34166 41.7639 2.33986 40.5678C2.33975 40.5277 2.34087 40.4876 2.343 40.4476V32.7798C2.98496 33.1987 3.7431 33.4037 4.50874 33.3652H16.3908V36.7601C16.4991 37.4657 17.0833 38.0012 17.7956 38.0478H30.2045C30.9168 38.0012 31.5009 37.4657 31.6093 36.7601V33.3652H43.4913C44.257 33.4038 45.0151 33.1989 45.6571 32.7798V40.4476C45.7216 41.6419 44.8058 42.6625 43.6115 42.7272ZM18.7321 35.7064V29.8532H29.268V35.7064H18.7321ZM43.6115 31.0207C43.5715 31.0228 43.5314 31.0239 43.4913 31.0238H31.6091V28.507C31.6091 27.8631 30.8482 27.5119 30.2043 27.5119H17.7956C17.1517 27.5119 16.3908 27.8631 16.3908 28.507V31.0238H4.50874C3.31266 31.0256 2.34166 30.0574 2.33986 28.8613C2.33975 28.8212 2.34087 28.7811 2.343 28.7411V13.8153C2.27388 12.7184 3.10708 11.7731 4.20401 11.704C4.30551 11.6976 4.40746 11.699 4.50874 11.7082H43.4913C44.5859 11.609 45.5536 12.416 45.6528 13.5106C45.662 13.6118 45.6633 13.7138 45.6569 13.8153V28.741C45.7216 29.9354 44.8058 30.956 43.6115 31.0207Z" fill="white" stroke="white" mask="url(#path-1-inside-1_1_94)"/>
</g>
<defs>
<clipPath id="clip0_1_94">
<rect width="48" height="48" fill="white"/>
</clipPath>
</defs>
</svg>
