<svg width="374" height="389" viewBox="0 0 374 389" fill="none" xmlns="http://www.w3.org/2000/svg">
<path fill-rule="evenodd" clip-rule="evenodd" d="M122.272 248.671C115.078 236.733 102.243 230.02 94.9218 218.159C85.8911 203.528 71.4175 188.631 74.826 171.801C78.225 155.018 98.9719 149.02 111.324 137.17C123.728 125.27 132.895 110.92 147.588 101.993C167.987 89.6003 191.852 63.7854 212.618 75.63C234.71 88.2307 220.959 124.41 229.106 148.489C234.215 163.591 246.788 174.497 251.246 189.803C256.749 208.693 264.257 228.646 257.869 247.233C251.097 266.935 233.499 280.528 216.116 292.011C197.186 304.517 174.483 325.475 153.853 315.947C130.891 305.343 135.325 270.331 122.272 248.671Z" fill="#FFECF2"/>
<path fill-rule="evenodd" clip-rule="evenodd" d="M120.557 258.615C112.697 245.167 98.3534 237.798 90.3486 224.44C80.4745 207.963 64.4608 191.302 68.68 172.045C72.8874 152.841 96.4444 145.548 110.652 131.769C124.919 117.932 135.585 101.374 152.372 90.8765C175.676 76.3018 203.191 46.3529 226.377 59.3956C251.043 73.2711 234.72 114.81 243.388 142.075C248.824 159.176 262.779 171.33 267.476 188.677C273.272 210.086 281.311 232.663 273.688 253.988C265.608 276.594 245.439 292.474 225.559 305.946C203.91 320.616 177.816 345.004 154.733 334.599C129.041 323.018 134.818 283.015 120.557 258.615Z" stroke="#FFD0E0" stroke-width="2"/>
</svg>
